<svg width="66" height="53" viewBox="0 0 66 53" fill="none" xmlns="http://www.w3.org/2000/svg">
<g id="barbel" clip-path="url(#clip0_1_761)">
<g id="Layer 2">
<g id="Layer 12">
<path id="Vector" d="M28.3615 0.791482L24.9572 4.1824L61.4503 40.5328L64.8545 37.1419L28.3615 0.791482Z" fill="#858585"/>
<path id="Vector_2" d="M41.8039 13.7028L37.9412 17.5503L48.5573 28.1248L52.4199 24.2773L41.8039 13.7028Z" fill="#2C3E50"/>
<path id="Vector_3" d="M61.4308 19.4101L43.6519 37.1196L46.5488 40.0053L64.3278 22.2958L61.4308 19.4101Z" fill="#383838"/>
<path id="Vector_4" d="M61.44 19.4053L43.661 37.1148L45.1095 38.5576L62.8885 20.8481L61.44 19.4053Z" fill="#1F1F1F"/>
<path id="Vector_5" d="M63.1675 23.4564L47.7232 38.8403L50.2412 41.3485L65.6855 25.9646L63.1675 23.4564Z" fill="#383838"/>
<path id="Vector_6" d="M63.1614 23.459L47.7171 38.8429L49.0373 40.1579L64.4816 24.7739L63.1614 23.459Z" fill="#1F1F1F"/>
<path id="Vector_7" d="M64.0186 27.6186L51.8991 39.6908L53.8732 41.6572L65.9927 29.585L64.0186 27.6186Z" fill="#383838"/>
<path id="Vector_8" d="M64.0244 27.621L51.9049 39.6931L52.895 40.6793L65.0145 28.6072L64.0244 27.621Z" fill="#1F1F1F"/>
<path id="Vector_9" d="M62.7381 32.8281L57.097 38.4471L58.9305 40.2735L64.5716 34.6544L62.7381 32.8281Z" fill="#2B2B2B"/>
<path id="Vector_10" d="M62.318 35.6347L62.9576 36.2718L64.3146 34.9201L63.6749 34.283C63.5873 34.1948 63.483 34.1247 63.368 34.0769C63.2531 34.0291 63.1297 34.0045 63.0051 34.0045C62.8805 34.0045 62.7571 34.0291 62.6422 34.0769C62.5272 34.1247 62.4229 34.1948 62.3353 34.283C62.2429 34.3694 62.169 34.4734 62.1179 34.5889C62.0668 34.7044 62.0397 34.829 62.0381 34.9552C62.0365 35.0814 62.0604 35.2066 62.1085 35.3233C62.1566 35.4401 62.2278 35.546 62.318 35.6347Z" fill="#0F0F0F"/>
<path id="Vector_11" d="M58.5149 39.4228L59.1459 40.0599L60.5029 38.7427L59.8633 38.1142C59.7757 38.0259 59.6713 37.9559 59.5564 37.9081C59.4414 37.8603 59.318 37.8356 59.1934 37.8356C59.0688 37.8356 58.9455 37.8603 58.8305 37.9081C58.7155 37.9559 58.6112 38.0259 58.5236 38.1142C58.3513 38.2882 58.2541 38.5224 58.2525 38.7667C58.2509 39.0111 58.345 39.2465 58.5149 39.4228Z" fill="#0F0F0F"/>
<path id="Vector_12" d="M60.4337 37.5115L61.0733 38.1486L62.4303 36.7969L61.7907 36.1598C61.7031 36.0716 61.5988 36.0015 61.4838 35.9537C61.3688 35.9059 61.2455 35.8813 61.1209 35.8813C60.9963 35.8813 60.8729 35.9059 60.7579 35.9537C60.6429 36.0015 60.5386 36.0716 60.451 36.1598C60.3586 36.2462 60.2847 36.3503 60.2337 36.4658C60.1826 36.5813 60.1555 36.7058 60.1538 36.832C60.1522 36.9582 60.1762 37.0834 60.2243 37.2002C60.2724 37.3169 60.3436 37.4228 60.4337 37.5115Z" fill="#0F0F0F"/>
<path id="Vector_13" d="M43.6197 1.65739L25.8407 19.3669L28.7377 22.2525L46.5167 4.54302L43.6197 1.65739Z" fill="#383838"/>
<path id="Vector_14" d="M45.0651 3.09892L27.2861 20.8084L28.7346 22.2512L46.5136 4.54174L45.0651 3.09892Z" fill="#1F1F1F"/>
<path id="Vector_15" d="M39.9334 0.308016L24.4891 15.692L27.0071 18.2001L42.4514 2.8162L39.9334 0.308016Z" fill="#383838"/>
<path id="Vector_16" d="M41.1312 1.50474L25.6869 16.8887L27.007 18.2036L42.4513 2.81971L41.1312 1.50474Z" fill="#1F1F1F"/>
<path id="Vector_17" d="M36.2928 -0.000627762L24.1733 12.0715L26.1474 14.0379L38.2669 1.96574L36.2928 -0.000627762Z" fill="#383838"/>
<path id="Vector_18" d="M37.2858 0.983261L25.1662 13.0554L26.1563 14.0416L38.2759 1.96949L37.2858 0.983261Z" fill="#1F1F1F"/>
<path id="Vector_19" d="M31.2009 1.42671L25.5598 7.04578L27.3933 8.87212L33.0344 3.25306L31.2009 1.42671Z" fill="#2B2B2B"/>
<path id="Vector_20" d="M30.2514 3.66764L29.6118 3.03054L30.9429 1.72189L31.5825 2.359C31.7572 2.53748 31.855 2.77692 31.855 3.02623C31.855 3.27554 31.7572 3.51498 31.5825 3.69347C31.4004 3.86155 31.1599 3.95276 30.9117 3.94795C30.6635 3.94313 30.4268 3.84265 30.2514 3.66764Z" fill="#0F0F0F"/>
<path id="Vector_21" d="M26.4138 7.45583L25.7742 6.81873L27.1312 5.46704L27.7708 6.10414C27.8594 6.19142 27.9297 6.29533 27.9777 6.40986C28.0257 6.52439 28.0504 6.64727 28.0504 6.77138C28.0504 6.89549 28.0257 7.01837 27.9777 7.1329C27.9297 7.24743 27.8594 7.35134 27.7708 7.43861C27.6841 7.53062 27.5796 7.60425 27.4637 7.65511C27.3477 7.70597 27.2227 7.73301 27.096 7.73462C26.9693 7.73623 26.8436 7.71237 26.7264 7.66446C26.6092 7.61656 26.5029 7.5456 26.4138 7.45583Z" fill="#0F0F0F"/>
<path id="Vector_22" d="M28.3413 5.54452L27.7017 4.90741L29.0587 3.55573L29.6983 4.19283C29.873 4.37131 29.9708 4.61075 29.9708 4.86006C29.9708 5.10937 29.873 5.34881 29.6983 5.5273C29.6103 5.61721 29.5054 5.68897 29.3896 5.7385C29.2738 5.78803 29.1494 5.81434 29.0233 5.81594C28.8973 5.81754 28.7722 5.79439 28.6552 5.74782C28.5382 5.70125 28.4315 5.63216 28.3413 5.54452Z" fill="#0F0F0F"/>
<path id="Vector_23" d="M4.1904 12.1305L0.786179 15.5214L37.2792 51.8718L40.6834 48.4809L4.1904 12.1305Z" fill="#858585"/>
<path id="Vector_24" d="M17.6303 25.0357L13.7677 28.8832L24.3837 39.4578L28.2463 35.6103L17.6303 25.0357Z" fill="#2C3E50"/>
<path id="Vector_25" d="M37.2572 30.7431L19.4783 48.4526L22.3752 51.3382L40.1542 33.6287L37.2572 30.7431Z" fill="#383838"/>
<path id="Vector_26" d="M37.2603 30.7443L19.4813 48.4538L20.9298 49.8966L38.7088 32.1871L37.2603 30.7443Z" fill="#1F1F1F"/>
<path id="Vector_27" d="M38.9964 34.7954L23.5521 50.1793L26.0701 52.6875L41.5144 37.3036L38.9964 34.7954Z" fill="#383838"/>
<path id="Vector_28" d="M38.994 34.7979L23.5497 50.1819L24.8698 51.4969L40.3141 36.1129L38.994 34.7979Z" fill="#1F1F1F"/>
<path id="Vector_29" d="M39.8476 38.9576L27.728 51.0298L29.7021 52.9962L41.8217 40.924L39.8476 38.9576Z" fill="#383838"/>
<path id="Vector_30" d="M39.8533 38.96L27.7338 51.0322L28.7239 52.0184L40.8434 39.9462L39.8533 38.96Z" fill="#1F1F1F"/>
<path id="Vector_31" d="M38.5645 44.1818L32.9234 49.8008L34.7569 51.6272L40.398 46.0081L38.5645 44.1818Z" fill="#2B2B2B"/>
<path id="Vector_32" d="M38.1427 46.9734L38.7823 47.6105L40.1393 46.2588L39.4997 45.6303C39.4121 45.542 39.3078 45.472 39.1928 45.4242C39.0778 45.3764 38.9545 45.3517 38.8299 45.3517C38.7053 45.3517 38.5819 45.3764 38.4669 45.4242C38.352 45.472 38.2476 45.542 38.16 45.6303C38.069 45.7166 37.9962 45.8201 37.9459 45.9348C37.8957 46.0495 37.8689 46.1731 37.8673 46.2982C37.8657 46.4234 37.8892 46.5476 37.9365 46.6635C37.9838 46.7795 38.054 46.8848 38.1427 46.9734Z" fill="#0F0F0F"/>
<path id="Vector_33" d="M34.3397 50.7959L34.9793 51.4244L36.3017 50.0469L35.6707 49.4184C35.5824 49.3299 35.4773 49.2597 35.3616 49.2118C35.2459 49.1638 35.1219 49.1392 34.9966 49.1392C34.8713 49.1392 34.7472 49.1638 34.6315 49.2118C34.5158 49.2597 34.4107 49.3299 34.3224 49.4184C34.2293 49.5081 34.1556 49.6158 34.1058 49.7349C34.056 49.854 34.0312 49.9819 34.0328 50.1109C34.0344 50.2399 34.0625 50.3672 34.1152 50.485C34.168 50.6028 34.2444 50.7086 34.3397 50.7959Z" fill="#0F0F0F"/>
<path id="Vector_34" d="M36.3017 48.8502L36.9413 49.4873L38.2983 48.1356L37.6587 47.4985C37.5711 47.4103 37.4668 47.3402 37.3518 47.2924C37.2368 47.2446 37.1134 47.22 36.9888 47.22C36.8643 47.22 36.7409 47.2446 36.6259 47.2924C36.5109 47.3402 36.4066 47.4103 36.319 47.4985C36.2266 47.5849 36.1527 47.6889 36.1017 47.8044C36.0506 47.9199 36.0234 48.0445 36.0218 48.1707C36.0202 48.2969 36.0442 48.4221 36.0923 48.5389C36.1404 48.6556 36.2116 48.7615 36.3017 48.8502Z" fill="#0F0F0F"/>
<path id="Vector_35" d="M19.44 13.005L1.66103 30.7145L4.55798 33.6001L22.337 15.8906L19.44 13.005Z" fill="#383838"/>
<path id="Vector_36" d="M20.8941 14.438L3.11511 32.1475L4.56359 33.5903L22.3426 15.8808L20.8941 14.438Z" fill="#1F1F1F"/>
<path id="Vector_37" d="M15.7537 11.647L0.309402 27.0309L2.82743 29.5391L18.2717 14.1552L15.7537 11.647Z" fill="#383838"/>
<path id="Vector_38" d="M16.9515 12.8524L1.50721 28.2363L2.82734 29.5513L18.2716 14.1674L16.9515 12.8524Z" fill="#1F1F1F"/>
<path id="Vector_39" d="M12.1217 11.3384L0.00219727 23.4106L1.97628 25.377L14.0958 13.3048L12.1217 11.3384Z" fill="#383838"/>
<path id="Vector_40" d="M13.1061 12.3222L0.986538 24.3944L1.97663 25.3806L14.0962 13.3085L13.1061 12.3222Z" fill="#1F1F1F"/>
<path id="Vector_41" d="M7.02984 12.7658L1.38873 18.3848L3.22224 20.2112L8.86335 14.5921L7.02984 12.7658Z" fill="#2B2B2B"/>
<path id="Vector_42" d="M6.05026 15.0064L5.41066 14.3693L6.76765 13.0176L7.40725 13.6547C7.49584 13.742 7.56617 13.8459 7.61417 13.9604C7.66217 14.0749 7.68689 14.1978 7.68689 14.3219C7.68689 14.446 7.66217 14.5689 7.61417 14.6834C7.56617 14.798 7.49584 14.9019 7.40725 14.9892C7.32053 15.0812 7.21607 15.1548 7.10012 15.2056C6.98417 15.2565 6.85911 15.2836 6.73243 15.2852C6.60574 15.2868 6.48004 15.2629 6.36282 15.215C6.24561 15.1671 6.1393 15.0961 6.05026 15.0064Z" fill="#0F0F0F"/>
<path id="Vector_43" d="M2.23859 18.7945L1.60764 18.166L2.96463 16.8143L3.59559 17.4428C3.68444 17.5308 3.75495 17.6355 3.80307 17.7507C3.85118 17.866 3.87595 17.9895 3.87595 18.1144C3.87595 18.2392 3.85118 18.3628 3.80307 18.478C3.75495 18.5933 3.68444 18.6979 3.59559 18.7859C3.50766 18.8763 3.40253 18.9483 3.28634 18.9977C3.17016 19.0472 3.04525 19.073 2.9189 19.0738C2.79256 19.0746 2.66733 19.0504 2.55052 19.0024C2.43371 18.9544 2.32767 18.8838 2.23859 18.7945Z" fill="#0F0F0F"/>
<path id="Vector_44" d="M4.16605 16.8832L3.52645 16.2461L4.88344 14.8944L5.52305 15.5315C5.61164 15.6188 5.68197 15.7227 5.72997 15.8372C5.77797 15.9518 5.80268 16.0746 5.80268 16.1987C5.80268 16.3229 5.77797 16.4457 5.72997 16.5603C5.68197 16.6748 5.61164 16.7787 5.52305 16.866C5.43632 16.958 5.33186 17.0316 5.21592 17.0825C5.09997 17.1333 4.97491 17.1604 4.84822 17.162C4.72154 17.1636 4.59583 17.1397 4.47862 17.0918C4.36141 17.0439 4.2551 16.973 4.16605 16.8832Z" fill="#0F0F0F"/>
</g>
</g>
</g>
<defs>
<clipPath id="clip0_1_761">
<rect width="66" height="53" fill="white"/>
</clipPath>
</defs>
</svg>
